<?xml version="1.0" encoding="utf-8"?>
<!-- Generator: Adobe Illustrator 24.0.2, SVG Export Plug-In . SVG Version: 6.00 Build 0)  -->
<svg version="1.1" id="图层_1" xmlns="http://www.w3.org/2000/svg" xmlns:xlink="http://www.w3.org/1999/xlink" x="0px" y="0px"
	 viewBox="92 338 590 590" style="enable-background:new 0 0 768 1366;" xml:space="preserve">
<style type="text/css">
	.st0{fill:#FFFFFF;}
	.st1{fill:#0A2A46;}
	.st2{fill:none;}
	.st3{fill:#EE6826;}
</style>
<rect x="2.69" y="248.06" class="st2" width="768.28" height="768.28"/>
<g>
	<path class="st1" d="M271,923l-87.48-63.25l-1.18-1.37c-6.07-7.04-11.81-13.7-17.16-20.87c-22.25-29.79-36.09-63.54-41.15-100.31
		c-0.84-6.14-1.26-12.88-1.27-20.62l-0.03-21.63c-0.07-54.48-0.15-110.81,0.06-166.23c0.1-26.6,1.92-54.83,14.49-81.05
		c27.13-56.62,70.51-91.41,128.94-103.42c9.51-1.95,19.74-2.87,32.43-2.82c12.06,0.03,24.12,0.08,36.18,0.13
		c40.34,0.16,82.06,0.33,122.99-0.34c35.05-0.53,62.78,4.13,87.28,14.8c57.09,24.86,91.74,68.56,103,129.87
		c1.97,10.75,2.89,22.5,2.89,36.99c0,22.59-0.02,45.18-0.03,67.77c-0.02,39.82-0.05,79.63-0.02,119.45
		c0.04,55.41-19.76,105.09-58.83,147.66c-0.25,0.27-0.49,0.55-0.74,0.84l-0.95,1.1l-77.52,63.17l-14.51,0.37
		C469.75,921.59,271,923,271,923z"/>
	<path class="st0" d="M365.94,374.52c-10.51-1.17-17.85,2.47-25.39,10.09c-60.38,60.99-121.27,121.47-181.96,182.14
		c-1.71,1.71-4.13,3.12-4.14,5.98c-0.05,10.32-0.02,20.63-0.02,33.24c78.65-77.73,155.75-153.93,234.04-231.32
		C379.78,374.67,372.78,375.29,365.94,374.52z"/>
	<path class="st2" d="M557.47,702.15c3.13,4.1,5.98,4.03,9.09-0.09c1.2-1.59,1.89-3.42,2.54-5.33c2.09-6.11,2.45-12.38,2.32-19.3
		c0.12-9.31-1.09-18.92-5.38-27.97c-1.5-3.16-2.92-6.92-6.83-6.86c-4.14,0.07-4.66,4.46-6.04,7.44c-0.82,1.77-1.09,3.82-1.48,5.77
		c-2.15,10.8-1.99,21.64,0.08,32.4C552.75,693.17,554.34,698.05,557.47,702.15z"/>
	<path class="st0" d="M280.81,374.52c-8.15-0.69-13.59,2.27-19.66,7.76c-6.8,6.15-12.7,12.98-19.08,19.43
		c-26.48,26.77-53.19,53.31-79.8,79.95c-1.75,1.75-3.94,3.21-4.63,5.79c-3.14,11.78-4.61,23.7-3.32,36.23
		c51.57-48.59,100.33-99.06,151.61-149.03C296.66,374.67,288.69,375.19,280.81,374.52z"/>
	<path class="st3" d="M585.8,688.32c-0.17-105.64-86.68-190.86-194.69-191.5c-105.06-0.62-195.76,83.87-194.75,192.06
		c-1.56,102.18,81.7,195.33,196.99,194.35C496.46,882.35,585.98,798.48,585.8,688.32z"/>
	<path class="st3" d="M519.52,802.06c-5.98,7.36-13.16,13.38-22.24,16.84c-3.92,1.49-7.24,0.06-8.84-4.25
		c-1.56-4.2-0.58-8.25,0.9-12.17c4.08-10.82,10.83-19.75,19.36-27.51c4.16-3.79,8.34-7.15,13.91-8.66
		c7.18-1.95,10.23,0.25,10.24,8.75C531.68,784.97,526.17,793.87,519.52,802.06z"/>
	<path class="st3" d="M551.71,655.82c0.39-1.95,0.66-3.99,1.48-5.77c1.38-2.98,1.9-7.37,6.04-7.44c3.91-0.06,5.33,3.69,6.83,6.86
		c4.29,9.05,5.5,18.66,5.38,27.97c0.13,6.91-0.23,13.19-2.32,19.3c-0.65,1.91-1.34,3.74-2.54,5.33c-3.12,4.12-5.96,4.2-9.09,0.09
		c-3.14-4.11-4.73-8.98-5.68-13.94C549.71,677.46,549.55,666.62,551.71,655.82z"/>
	<path class="st0" d="M310.23,819.14c-1.23-0.21-2.57-0.25-3.18-2.24c-4.69-15.46-16.26-24.16-30.4-30.14
		c-2.29-0.97-4.74-1.75-7.19-2.11c-10.33-1.49-18.66,2.47-14.85,15.8c0.86,3.01-4.8,0.96-8.72-4.06
		c-27.42-35.16-38.94-76.12-35.61-121.81c2.14-29.39,12.34-56.74,27.3-82.33c9.04-15.46,21.45-27.59,34.86-39.02
		c23.75-20.24,50.94-33.31,81.61-38.72c21.9-3.86,43.94-3.58,66.1-1.22c40.42,4.3,72.39,24.76,101.26,51.47
		c15.91,14.71,22.37,33.71,23.54,54.69c1.31,23.5-3.39,46.05-11.57,68.07c-13.64,36.71-37.61,65.49-67.45,90.02
		c-26.56,21.83-56.79,35.7-90.4,42.35C353.73,824.21,331.95,822.75,310.23,819.14z"/>
	<path class="st3" d="M368.56,860.28c-5.06-4.43-5.17-8.18-0.04-12.64c4.81-4.18,10.82-6.08,16.91-6.82
		c9.54-1.16,19.16-1.39,28.45,2c1.02,0.37,2.1,0.63,3.05,1.13c3.89,2.05,8.09,4.23,8.17,9.25c0.07,4.5-3.57,6.72-7.1,8.81
		c-7.35,4.34-15.47,4.64-23.63,4.81c-6.38,0.07-12.65-0.53-18.72-2.66C373.07,863.24,370.64,862.1,368.56,860.28z"/>
	<path class="st3" d="M494.08,726.23c12.05-6.88,17.3-17.96,17.33-31.66c0-1.09,0.05-2.18-0.01-3.26
		c-0.64-11.89-8.25-22.86-17.43-25.16c-10.14-2.55-20.75,2.44-27.71,12.78c-5.57,8.28-7.85,17.35-7.44,27.25
		C459.58,724.35,478.3,735.23,494.08,726.23z"/>
	<path class="st3" d="M302.55,689.99c-9.05-0.37-14.76,3.01-19.02,8.94c-9.16,12.74-7.78,31.12,3.06,42.51
		c13.45,14.13,34.06,11.62,41.8-5.33c3.09-6.76,2.94-14.06,1.16-21.28C326.05,700.6,313.99,690.07,302.55,689.99z"/>
	<path class="st3" d="M237.47,674.87c-6.05-5.51-11.6-4.23-14.97,3.16c-3.67,8.07-3.66,16.64-2.74,25.07
		c1.09,9.95,3.32,19.77,11.69,26.61c5.92,4.84,10.88,3.77,14.67-2.88c3.25-5.72,3.46-12.08,4.1-18.84
		C249.11,696.04,247.39,683.89,237.47,674.87z"/>
	<path class="st0" d="M571.43,677.44c0.13,6.91-0.23,13.19-2.32,19.3c-0.65,1.91-1.34,3.74-2.54,5.33c-3.12,4.12-5.96,4.2-9.09,0.09
		c-3.14-4.11-4.73-8.98-5.68-13.94c-2.08-10.76-2.24-21.6-0.08-32.4c0.39-1.95,0.66-3.99,1.48-5.77c1.38-2.98,1.9-7.37,6.04-7.44
		c3.91-0.06,5.33,3.69,6.83,6.86C570.34,658.52,571.55,668.13,571.43,677.44z"/>
	<path class="st0" d="M522.61,766.3c-5.57,1.51-9.75,4.88-13.91,8.66c-8.53,7.76-15.28,16.7-19.36,27.51
		c-1.48,3.91-2.46,7.96-0.9,12.17c1.6,4.31,4.93,5.75,8.84,4.25c9.08-3.46,16.26-9.47,22.24-16.84
		c6.65-8.19,12.16-17.09,13.33-27.01C532.84,766.55,529.79,764.35,522.61,766.3z"/>
	<path class="st0" d="M418.01,862c3.53-2.09,7.18-4.31,7.1-8.81c-0.08-5.02-4.28-7.2-8.17-9.25c-0.95-0.5-2.03-0.75-3.05-1.13
		c-9.29-3.39-18.91-3.16-28.45-2c-6.09,0.74-12.1,2.65-16.91,6.82c-5.14,4.46-5.02,8.22,0.04,12.64c2.08,1.82,4.51,2.96,7.1,3.87
		c6.07,2.13,12.34,2.72,18.72,2.66C402.54,866.64,410.66,866.34,418.01,862z"/>
	<path class="st3" d="M394.55,788.2c-20.29,1.02-36.79-14.2-36.65-30.81c0.15-17.25,16.32-31.52,37.1-31.29
		c21.41,0.24,36.85,15.34,36.66,31.35C431.48,771.95,417.1,789.72,394.55,788.2z"/>
	<path class="st3" d="M375.39,609.46c17.82-1.44,34.05,16.23,33.75,32.39c-0.39,21.38-14.7,36.8-35.22,37
		c-18.59,0.18-34.36-14.94-34.33-32.92C339.63,625.23,355.1,609.47,375.39,609.46z"/>
	<path class="st3" d="M290.97,566.84c11.52-0.14,18.27,9.17,15,21.37c-4.07,15.19-13.73,25.83-28.46,31.12
		c-12.87,4.63-22.59-2.8-22.23-15.64C255.76,585.98,273.6,567.06,290.97,566.84z"/>
	<path class="st3" d="M381.26,565.13c-7.87-0.4-16.29-1.23-22.73-8.62c-4.63-5.32-5.78-11.77-1.84-17.65
		c3.35-5.01,8.01-8.29,13.7-10.16c11.07-3.65,22.09-3.98,32.78,1.14c12.6,6.04,13.95,19.31,2.92,27.9
		C399.08,563.19,390.92,565.17,381.26,565.13z"/>
	<path class="st2" d="M381.26,565.13c9.66,0.03,17.82-1.95,24.83-7.4c11.03-8.58,9.68-21.86-2.92-27.9
		c-10.69-5.12-21.71-4.79-32.78-1.14c-5.69,1.88-10.35,5.16-13.7,10.16c-3.94,5.88-2.79,12.33,1.84,17.65
		C364.97,563.91,373.39,564.73,381.26,565.13z"/>
	<path class="st2" d="M409.15,641.85c0.3-16.16-15.93-33.83-33.75-32.39c-20.29,0-35.76,15.76-35.79,36.47
		c-0.03,17.98,15.73,33.1,34.33,32.92C394.44,678.65,408.75,663.23,409.15,641.85z"/>
	<path class="st2" d="M305.97,588.21c3.27-12.2-3.48-21.52-15-21.37c-17.38,0.22-35.21,19.14-35.7,36.85
		c-0.35,12.84,9.36,20.27,22.23,15.64C292.24,614.05,301.9,603.4,305.97,588.21z"/>
	<path class="st3" d="M458.84,580.44c0.1-7.13,2.14-13.87,8.63-17.21c8.13-4.18,16.47-1.84,23.55,3.21
		c8.01,5.71,14.49,12.95,17.85,22.53c0.97,2.77,1.54,5.55,1.58,8.49c0.21,13.92-9.52,21.74-23.16,18.56
		C473.29,612.76,459.11,595,458.84,580.44z"/>
	<path class="st2" d="M487.28,616.02c13.64,3.17,23.37-4.64,23.16-18.56c-0.04-2.94-0.61-5.71-1.58-8.49
		c-3.36-9.58-9.83-16.82-17.85-22.53c-7.08-5.05-15.42-7.39-23.55-3.21c-6.49,3.33-8.53,10.08-8.63,17.21
		C459.11,595,473.29,612.76,487.28,616.02z"/>
	<path class="st3" d="M376.32,689.89c-25.28,1.44-45.85-20.09-45.68-43.6c0.18-24.41,20.34-44.61,46.23-44.29
		c26.69,0.34,45.93,21.7,45.69,44.37C422.35,666.88,404.42,692.04,376.32,689.89z"/>
	<g>
		<path class="st0" d="M403.69,634.01c-0.22,6.64-4.71,11.96-11.27,13.4c-0.53,0.12-1.14,0.19-1.64,0.03
			c-0.53-0.17-0.97-0.63-1.45-0.96c0.47-0.37,0.91-1,1.41-1.05c2.37-0.24,4.5-0.87,6.41-2.43c4.56-3.74,5.3-8.79,3.66-13.14
			c-1.98-5.24-6.91-7.9-12.34-7.21c-6.68,0.84-11.01,7.42-9.5,14.01c0.96,4.2,3.35,7.69,5.12,11.48c3,6.43,3.73,12.99,1.34,19.68
			c-1.74,4.88-3.89,9.62-5.93,14.39c-0.2,0.47-0.79,0.87-1.3,1.05c-0.18,0.06-0.72-0.57-0.95-0.96c-2.5-4.3-4.97-8.62-7.46-12.92
			c-2.22-3.82-4.44-7.65-6.7-11.45c-1.24-2.1-2.5-4.17-3.82-6.22c-2.79-4.31-5.01-8.89-5.89-13.98c-1.32-7.7,0.84-14.49,5.89-20.33
			c5.03-5.81,11.5-8.63,20.33-8.69c9.03,0.32,16.59,5.02,21.36,13.92C402.81,626.11,403.82,629.98,403.69,634.01z"/>
	</g>
</g>
</svg>
