<?xml version="1.0" encoding="utf-8"?>
<!-- Generator: Adobe Illustrator 24.0.2, SVG Export Plug-In . SVG Version: 6.00 Build 0)  -->
<svg version="1.1" id="图层_1" xmlns="http://www.w3.org/2000/svg" xmlns:xlink="http://www.w3.org/1999/xlink" x="0px" y="0px"
	 viewBox="80 380 600 620" style="enable-background:new 0 0 768 1366;" xml:space="preserve">
<style type="text/css">
	.st0{fill:#082A46;}
	.st1{fill:#FFFFFF;}
	.st2{fill:#0A2A46;}
	.st3{fill:none;}
	.st4{fill:#EE6826;}
</style>
<g>
	<!-- outer ring "PICKLEBALL CLUB" -->
	<path class="st0" d="M149.74,957.67v-61.23c0-6.52,5.29-11.81,11.81-11.81h432.63c6.52,0,11.81,5.29,11.81,11.81v61.23
		c0,6.52-5.29,11.81-11.81,11.81H161.54C155.02,969.48,149.74,964.19,149.74,957.67z"/>
	<!-- white background "PICKLEBALL CLUB" -->
	<path class="st1" d="M590.79,962.95H164.93c-4.31,0-7.81-3.5-7.81-7.81v-56.18c0-4.31,3.5-7.81,7.81-7.81h425.85
		c4.31,0,7.81,3.5,7.81,7.81v56.18C598.59,959.45,595.1,962.95,590.79,962.95z"/>
	<path class="st0" d="M657.28,907.92H98.44c-7.51,0-13.59-6.08-13.59-13.59v-82.3c0-7.51,6.08-13.59,13.59-13.59h558.84
		c7.51,0,13.59,6.08,13.59,13.59v82.3C670.87,901.83,664.78,907.92,657.28,907.92z"/>
	<!-- text section "PICKLEBALL CLUB" -->
	<g>
		<path class="st0" d="M191.69,916.6c-0.57-0.93-1.25-1.69-2.02-2.23c-0.81-0.58-1.7-0.87-2.66-0.87h-10.97
			c-0.95,0-1.85,0.29-2.66,0.87c-0.77,0.55-1.45,1.3-2,2.24c-0.54,0.91-0.98,1.98-1.32,3.2c-0.33,1.22-0.5,2.51-0.5,3.86l0.12,34.38
			h6.74v-11.56h10.58c0.95,0,1.85-0.29,2.66-0.87c0.77-0.54,1.44-1.28,2.01-2.19c0.56-0.89,1.01-1.97,1.33-3.19
			c0.31-1.21,0.47-2.51,0.47-3.85v-12.72c0-1.39-0.16-2.7-0.48-3.89C192.7,918.58,192.25,917.51,191.69,916.6z M186.63,922.3v15.38
			c0,0.52-0.09,0.93-0.28,1.23c-0.18,0.29-0.33,0.29-0.4,0.29h-9.52v-16.9c0-0.52,0.09-0.93,0.28-1.23c0.18-0.3,0.31-0.3,0.36-0.3
			h8.88c0.07,0,0.22,0,0.4,0.29C186.53,921.37,186.63,921.79,186.63,922.3z"/>
		<rect x="202.03" y="913.5" class="st0" width="6.86" height="44.55"/>
		<path class="st0" d="M221.53,914.36L221.53,914.36c-0.77,0.55-1.45,1.3-2,2.24c-0.54,0.9-0.98,1.97-1.32,3.17
			c-0.33,1.2-0.5,2.51-0.5,3.89v24.29c0,1.35,0.17,2.64,0.5,3.83c0.33,1.19,0.77,2.26,1.31,3.17c0.56,0.94,1.23,1.69,2,2.24
			c0.81,0.58,1.7,0.87,2.66,0.87h17.05v-7.28h-15.98c-0.07,0-0.21,0-0.39-0.32c-0.19-0.32-0.28-0.71-0.28-1.15v-27
			c0-0.52,0.09-0.93,0.28-1.23c0.18-0.3,0.33-0.3,0.4-0.3h15.98v-7.28h-17.05C223.23,913.5,222.34,913.79,221.53,914.36z"/>
		<polygon class="st0" points="266,913.5 257.53,930.79 257.53,913.5 250.71,913.5 250.71,958.05 257.53,958.05 257.53,940.59 
			265.82,957.67 266,958.05 274,958.05 263.13,935.68 274,913.5 		"/>
		<path class="st0" d="M286.18,950.46c-0.19-0.33-0.29-0.71-0.29-1.15V913.5h-6.86v34.39c0,1.4,0.16,2.7,0.47,3.89
			c0.32,1.19,0.75,2.26,1.3,3.18c0.56,0.94,1.24,1.69,2.03,2.24c0.82,0.57,1.71,0.86,2.63,0.86h11.13v-7.28h-10.06
			C286.49,950.77,286.36,950.77,286.18,950.46z"/>
		<path class="st0" d="M308.23,914.36L308.23,914.36c-0.77,0.55-1.45,1.3-2.02,2.23c-0.56,0.91-1,1.98-1.32,3.18
			c-0.32,1.19-0.48,2.5-0.48,3.89v24.29c0,1.35,0.16,2.64,0.48,3.82c0.31,1.19,0.76,2.27,1.32,3.18c0.57,0.93,1.25,1.69,2.02,2.23
			c0.81,0.58,1.69,0.87,2.62,0.87h17.05v-7.28h-15.99c-0.04,0-0.18,0-0.38-0.33c-0.2-0.32-0.3-0.7-0.3-1.14v-9.86h15.51v-7.34
			h-15.51v-9.8c0-0.51,0.1-0.92,0.29-1.22c0.2-0.31,0.33-0.31,0.39-0.31h15.99v-7.28h-17.05
			C309.92,913.5,309.04,913.79,308.23,914.36z"/>
		<path class="st0" d="M357.47,916.66c-0.57-0.93-1.25-1.68-2.02-2.23c-0.81-0.58-1.69-0.87-2.62-0.87h-17.88v44.49h17.88
			c0.93,0,1.81-0.3,2.63-0.91c0.77-0.57,1.44-1.31,2-2.21c0.56-0.88,1-1.94,1.33-3.16c0.31-1.2,0.47-2.51,0.47-3.88v-7.36
			c0-1.5-0.32-2.79-0.97-3.84c-0.25-0.41-0.53-0.75-0.84-1.01c0.32-0.28,0.61-0.63,0.86-1.03c0.32-0.51,0.56-1.11,0.71-1.78
			c0.16-0.65,0.24-1.33,0.24-2.03v-7.11c0-1.38-0.16-2.68-0.48-3.89C358.47,918.63,358.02,917.56,357.47,916.66z M352.4,940.78v8.46
			c0,0.48-0.1,0.89-0.28,1.21c-0.18,0.32-0.31,0.32-0.35,0.32h-9.99v-11.52h9.99c0.04,0,0.17,0,0.35,0.31
			C352.31,939.89,352.4,940.3,352.4,940.78z M352.4,930.51c0,0.51-0.09,0.93-0.28,1.23c-0.18,0.29-0.31,0.29-0.36,0.29h-9.99v-11.2
			h9.99c0.05,0,0.18,0,0.36,0.29c0.19,0.31,0.28,0.73,0.28,1.24V930.51z"/>
		<path class="st0" d="M373.02,913.37l-10.09,44.68h6.9l2.21-9.95h9.31l2.13,9.43l0.12,0.52h6.89l-10.05-44.68H373.02z
			 M379.67,940.76h-5.95l2.96-13.21L379.67,940.76z"/>
		<path class="st0" d="M402.09,950.46L402.09,950.46c-0.19-0.33-0.29-0.71-0.29-1.15V913.5h-6.86v34.39c0,1.38,0.16,2.69,0.48,3.89
			c0.32,1.19,0.75,2.26,1.3,3.18c0.56,0.94,1.25,1.7,2.02,2.24c0.82,0.57,1.71,0.86,2.63,0.86h11.13v-7.28h-10.06
			C402.39,950.77,402.26,950.77,402.09,950.46z"/>
		<path class="st0" d="M430.43,950.46L430.43,950.46c-0.19-0.33-0.29-0.71-0.29-1.15V913.5h-6.86v34.39c0,1.38,0.16,2.69,0.48,3.89
			c0.32,1.19,0.75,2.26,1.3,3.18c0.56,0.95,1.25,1.7,2.02,2.24c0.82,0.57,1.71,0.86,2.64,0.86h11.13v-7.28h-10.07
			C430.74,950.77,430.61,950.77,430.43,950.46z"/>
		<path class="st0" d="M482.01,914.36c-0.78,0.55-1.45,1.31-2,2.24c-0.54,0.91-0.98,1.97-1.32,3.17c-0.33,1.2-0.5,2.51-0.5,3.89
			v24.29c0,1.34,0.17,2.63,0.5,3.83c0.33,1.19,0.77,2.26,1.32,3.17c0.55,0.94,1.23,1.69,2,2.24c0.81,0.58,1.7,0.87,2.66,0.87h17.05
			v-7.28h-15.99c-0.07,0-0.21,0-0.39-0.32c-0.19-0.32-0.28-0.71-0.28-1.15v-27c0-0.52,0.09-0.93,0.28-1.24
			c0.18-0.29,0.32-0.29,0.39-0.29h15.99v-7.28h-17.05C483.71,913.5,482.82,913.79,482.01,914.36z"/>
		<path class="st0" d="M513.99,950.46L513.99,950.46c-0.19-0.33-0.29-0.71-0.29-1.15V913.5h-6.86v34.39c0,1.39,0.16,2.69,0.48,3.89
			c0.32,1.19,0.75,2.26,1.3,3.18c0.57,0.95,1.25,1.7,2.02,2.24c0.82,0.57,1.71,0.86,2.63,0.86h11.13v-7.28h-10.06
			C514.29,950.77,514.17,950.77,513.99,950.46z"/>
		<path class="st0" d="M549.4,949.24c0,0.48-0.1,0.89-0.28,1.21c-0.18,0.32-0.33,0.32-0.39,0.32h-9.52c-0.07,0-0.21,0-0.39-0.32
			c-0.19-0.32-0.28-0.73-0.28-1.21v-36h-6.86v34.64c0,1.34,0.16,2.63,0.48,3.82c0.31,1.19,0.76,2.26,1.32,3.18
			c0.58,0.95,1.24,1.68,2.01,2.25c0.81,0.6,1.71,0.91,2.67,0.91h11.65c0.96,0,1.86-0.31,2.67-0.91c0.76-0.57,1.44-1.32,2.01-2.25
			c0.56-0.92,1-1.99,1.32-3.18c0.31-1.18,0.47-2.47,0.47-3.82v-34.64h-6.86V949.24z"/>
		<path class="st0" d="M583.92,934.63c0.31-0.51,0.54-1.09,0.71-1.77c0.16-0.65,0.24-1.33,0.24-2.03v-7.11
			c0-1.38-0.16-2.69-0.48-3.89c-0.32-1.2-0.76-2.27-1.32-3.18c-0.57-0.93-1.25-1.68-2.02-2.23c-0.81-0.58-1.69-0.87-2.62-0.87
			h-17.88v44.49h17.88c0.94,0,1.82-0.31,2.63-0.91c0.76-0.57,1.44-1.31,2.01-2.21c0.56-0.9,1-1.96,1.32-3.15
			c0.32-1.2,0.48-2.5,0.48-3.89v-7.36c0-1.49-0.33-2.78-0.97-3.84c-0.25-0.41-0.53-0.75-0.84-1.01
			C583.38,935.39,583.67,935.04,583.92,934.63L583.92,934.63z M578,949.24c0,0.48-0.1,0.89-0.28,1.21
			c-0.18,0.32-0.31,0.32-0.35,0.32h-9.99v-11.52h9.99c0.04,0,0.17,0,0.35,0.32c0.19,0.32,0.28,0.73,0.28,1.21V949.24z M578,930.51
			c0,0.53-0.09,0.93-0.28,1.23c-0.18,0.29-0.31,0.29-0.36,0.29h-9.99v-11.2h9.99c0.05,0,0.17,0,0.36,0.29
			c0.19,0.31,0.28,0.71,0.28,1.24V930.51z"/>
	</g>
	<path class="st2" d="M293.28,817.59l-61.48-43.97l-0.85-0.99c-4.36-5.06-8.48-9.84-12.33-14.99
		c-15.98-21.4-25.93-45.65-29.56-72.07c-0.61-4.41-0.9-9.26-0.91-14.82l-0.02-15.54c-0.05-39.14-0.1-79.61,0.05-119.42
		c0.07-19.11,1.38-39.39,10.41-58.23c19.49-40.68,50.66-65.67,92.64-74.3c6.83-1.4,14.18-2.06,23.3-2.03
		c8.66,0.02,17.33,0.05,25.99,0.09c28.98,0.12,58.95,0.24,88.36-0.24c25.18-0.38,45.1,2.97,62.7,10.63
		c41.01,17.86,65.91,49.25,74,93.3c1.42,7.72,2.08,16.17,2.08,26.57c0,16.23-0.01,32.46-0.02,48.69
		c-0.02,28.61-0.03,57.21-0.01,85.82c0.03,39.81-14.19,75.5-42.27,106.08c-0.18,0.2-0.35,0.4-0.53,0.6l-0.68,0.79l-55.69,45.39
		l-10.43,0.26c-20.58-1.17-119.21-2.73-150.34-1.95L293.28,817.59z"/>
	<path class="st1" d="M362.85,425.02c-7.55-0.84-12.82,1.78-18.24,7.25c-43.38,43.81-87.12,87.27-130.73,130.86
		c-1.23,1.23-2.97,2.24-2.98,4.3c-0.03,7.41-0.01,14.82-0.01,23.88c56.5-55.85,111.89-110.59,168.14-166.18
		C372.79,425.13,367.77,425.57,362.85,425.02z"/>
	<path class="st3" d="M500.45,660.4c2.25,2.95,4.29,2.89,6.53-0.07c0.86-1.14,1.36-2.45,1.83-3.83c1.5-4.39,1.76-8.9,1.67-13.86
		c0.09-6.69-0.78-13.59-3.86-20.09c-1.08-2.27-2.1-4.97-4.91-4.93c-2.98,0.05-3.35,3.21-4.34,5.35c-0.59,1.27-0.78,2.74-1.06,4.14
		c-1.55,7.76-1.43,15.54,0.06,23.27C497.06,653.95,498.2,657.45,500.45,660.4z"/>
	<path class="st1" d="M301.69,425.02c-5.85-0.5-9.76,1.63-14.12,5.58c-4.89,4.42-9.12,9.32-13.71,13.96
		c-19.02,19.23-38.22,38.3-57.33,57.44c-1.26,1.26-2.83,2.31-3.33,4.16c-2.26,8.46-3.31,17.03-2.38,26.03
		c37.05-34.91,72.08-71.17,108.92-107.06C313.08,425.13,307.35,425.5,301.69,425.02z"/>
	<path class="st4" d="M520.81,650.46c-0.12-75.89-62.27-137.12-139.87-137.58c-75.47-0.45-140.64,60.26-139.91,137.98
		c-1.12,73.41,58.7,140.33,141.52,139.63C456.62,789.86,520.93,729.6,520.81,650.46z"/>
	<path class="st4" d="M473.18,732.18c-4.3,5.29-9.45,9.61-15.98,12.09c-2.81,1.07-5.2,0.04-6.35-3.06
		c-1.12-3.02-0.41-5.93,0.65-8.74c2.93-7.77,7.78-14.19,13.91-19.77c2.99-2.72,5.99-5.14,10-6.22c5.16-1.4,7.35,0.18,7.36,6.29
		C481.92,719.9,477.96,726.29,473.18,732.18z"/>
	<path class="st4" d="M496.31,627.11c0.28-1.4,0.47-2.87,1.06-4.14c0.99-2.14,1.36-5.3,4.34-5.35c2.81-0.05,3.83,2.65,4.91,4.93
		c3.08,6.5,3.95,13.41,3.86,20.09c0.09,4.97-0.17,9.48-1.67,13.86c-0.47,1.37-0.97,2.69-1.83,3.83c-2.24,2.96-4.28,3.02-6.53,0.07
		c-2.25-2.95-3.4-6.45-4.08-10.01C494.88,642.66,494.76,634.87,496.31,627.11z"/>
	<path class="st1" d="M322.83,744.44c-0.88-0.15-1.85-0.18-2.28-1.61c-3.37-11.11-11.68-17.36-21.84-21.65
		c-1.65-0.7-3.41-1.26-5.17-1.51c-7.42-1.07-13.4,1.77-10.67,11.35c0.62,2.16-3.45,0.69-6.27-2.92
		c-19.7-25.26-27.97-54.69-25.58-87.51c1.54-21.11,8.87-40.77,19.61-59.15c6.5-11.11,15.41-19.82,25.05-28.03
		c17.06-14.54,36.6-23.93,58.63-27.81c15.74-2.78,31.57-2.57,47.48-0.88c29.04,3.09,52,17.79,72.75,36.97
		c11.43,10.57,16.07,24.22,16.91,39.29c0.94,16.88-2.43,33.09-8.31,48.9c-9.8,26.37-27.02,47.05-48.46,64.67
		c-19.08,15.68-40.8,25.64-64.95,30.43C354.08,748.09,338.43,747.04,322.83,744.44z"/>
	<path class="st4" d="M364.73,774.01c-3.64-3.18-3.72-5.88-0.03-9.08c3.46-3,7.77-4.37,12.15-4.9c6.85-0.84,13.77-1,20.44,1.44
		c0.73,0.27,1.51,0.45,2.19,0.81c2.8,1.48,5.81,3.04,5.87,6.65c0.05,3.23-2.57,4.83-5.1,6.33c-5.28,3.12-11.11,3.33-16.97,3.45
		c-4.58,0.05-9.09-0.38-13.45-1.91C367.97,776.13,366.23,775.31,364.73,774.01z"/>
	<path class="st4" d="M454.91,677.7c8.66-4.94,12.43-12.9,12.45-22.75c0-0.78,0.04-1.56-0.01-2.34
		c-0.46-8.54-5.92-16.42-12.53-18.08c-7.29-1.83-14.91,1.75-19.91,9.18c-4,5.95-5.64,12.46-5.34,19.58
		C430.13,676.35,443.58,684.17,454.91,677.7z"/>
	<path class="st4" d="M317.31,651.67c-6.5-0.26-10.6,2.16-13.66,6.42c-6.58,9.16-5.59,22.36,2.2,30.54
		c9.66,10.15,24.47,8.35,30.03-3.83c2.22-4.86,2.11-10.1,0.83-15.29C334.19,659.29,325.53,651.72,317.31,651.67z"/>
	<path class="st4" d="M270.56,640.8c-4.35-3.96-8.33-3.04-10.75,2.27c-2.64,5.8-2.63,11.95-1.97,18.01
		c0.78,7.15,2.38,14.2,8.4,19.12c4.25,3.48,7.82,2.71,10.54-2.07c2.34-4.11,2.49-8.68,2.94-13.53
		C278.92,656.01,277.68,647.28,270.56,640.8z"/>
	<path class="st1" d="M510.48,642.65c0.09,4.97-0.17,9.48-1.67,13.86c-0.47,1.37-0.97,2.69-1.83,3.83
		c-2.24,2.96-4.28,3.02-6.53,0.07c-2.25-2.95-3.4-6.45-4.08-10.01c-1.49-7.73-1.61-15.51-0.06-23.27c0.28-1.4,0.47-2.87,1.06-4.14
		c0.99-2.14,1.36-5.3,4.34-5.35c2.81-0.05,3.83,2.65,4.91,4.93C509.7,629.05,510.57,635.96,510.48,642.65z"/>
	<path class="st1" d="M475.4,706.49c-4,1.09-7.01,3.5-10,6.22c-6.13,5.58-10.98,12-13.91,19.77c-1.06,2.81-1.77,5.72-0.65,8.74
		c1.15,3.1,3.54,4.13,6.35,3.06c6.52-2.49,11.68-6.8,15.98-12.09c4.78-5.88,8.74-12.28,9.58-19.4
		C482.76,706.66,480.56,705.09,475.4,706.49z"/>
	<path class="st1" d="M400.26,775.24c2.54-1.5,5.16-3.1,5.1-6.33c-0.06-3.61-3.08-5.17-5.87-6.65c-0.68-0.36-1.46-0.54-2.19-0.81
		c-6.67-2.43-13.59-2.27-20.44-1.44c-4.38,0.53-8.69,1.9-12.15,4.9c-3.69,3.2-3.61,5.9,0.03,9.08c1.5,1.31,3.24,2.13,5.1,2.78
		c4.36,1.53,8.87,1.95,13.45,1.91C389.15,778.57,394.98,778.36,400.26,775.24z"/>
	<path class="st4" d="M383.4,722.22c-14.57,0.73-26.43-10.2-26.33-22.14c0.11-12.39,11.72-22.65,26.65-22.48
		c15.38,0.17,26.47,11.02,26.34,22.52C409.94,710.54,399.6,723.31,383.4,722.22z"/>
	<path class="st4" d="M369.64,593.81c12.8-1.03,24.46,11.66,24.25,23.27c-0.28,15.36-10.56,26.44-25.3,26.58
		c-13.36,0.13-24.68-10.73-24.66-23.65C343.95,605.14,355.06,593.81,369.64,593.81z"/>
	<path class="st4" d="M308.99,563.19c8.27-0.1,13.13,6.59,10.77,15.35c-2.93,10.91-9.86,18.56-20.45,22.36
		c-9.25,3.32-16.23-2.01-15.97-11.24C283.7,576.94,296.51,563.35,308.99,563.19z"/>
	<path class="st4" d="M373.86,561.96c-5.66-0.29-11.7-0.88-16.33-6.19c-3.33-3.82-4.15-8.46-1.33-12.68c2.41-3.6,5.76-5.95,9.84-7.3
		c7.95-2.62,15.87-2.86,23.55,0.82c9.05,4.34,10.03,13.88,2.1,20.04C386.66,560.56,380.8,561.99,373.86,561.96z"/>
	<path class="st3" d="M373.86,561.96c6.94,0.02,12.8-1.4,17.84-5.32c7.93-6.17,6.95-15.71-2.1-20.04
		c-7.68-3.68-15.6-3.44-23.55-0.82c-4.09,1.35-7.43,3.71-9.84,7.3c-2.83,4.22-2,8.86,1.33,12.68
		C362.16,561.08,368.2,561.68,373.86,561.96z"/>
	<path class="st3" d="M393.89,617.08c0.21-11.61-11.45-24.3-24.25-23.27c-14.58,0-25.69,11.32-25.71,26.2
		c-0.02,12.92,11.3,23.78,24.66,23.65C383.33,643.52,393.61,632.44,393.89,617.08z"/>
	<path class="st3" d="M319.77,578.55c2.35-8.76-2.5-15.46-10.77-15.35c-12.48,0.16-25.3,13.75-25.65,26.48
		c-0.25,9.23,6.72,14.56,15.97,11.24C309.9,597.1,316.84,589.46,319.77,578.55z"/>
	<path class="st4" d="M429.59,572.96c0.07-5.12,1.54-9.97,6.2-12.36c5.84-3,11.83-1.32,16.92,2.31c5.76,4.1,10.41,9.3,12.82,16.19
		c0.7,1.99,1.1,3.98,1.13,6.1c0.15,10-6.84,15.62-16.64,13.34C439.98,596.18,429.79,583.42,429.59,572.96z"/>
	<path class="st3" d="M450.03,598.52c9.8,2.28,16.79-3.34,16.64-13.34c-0.03-2.11-0.44-4.11-1.13-6.1
		c-2.41-6.88-7.07-12.08-12.82-16.19c-5.09-3.63-11.08-5.31-16.92-2.31c-4.66,2.4-6.13,7.24-6.2,12.36
		C429.79,583.42,439.98,596.18,450.03,598.52z"/>
	<path class="st4" d="M370.31,651.59c-18.16,1.04-32.94-14.43-32.81-31.33c0.13-17.54,14.61-32.05,33.22-31.82
		c19.17,0.24,32.99,15.59,32.82,31.87C403.38,635.06,390.5,653.13,370.31,651.59z"/>
	<g>
		<path class="st1" d="M389.97,611.45c-0.16,4.77-3.39,8.59-8.1,9.63c-0.38,0.08-0.82,0.13-1.18,0.02c-0.38-0.12-0.7-0.45-1.04-0.69
			c0.34-0.26,0.65-0.72,1.01-0.75c1.71-0.17,3.24-0.63,4.6-1.75c3.27-2.69,3.81-6.31,2.63-9.44c-1.42-3.77-4.97-5.68-8.87-5.18
			c-4.8,0.61-7.91,5.33-6.82,10.07c0.69,3.02,2.41,5.53,3.68,8.25c2.16,4.62,2.68,9.33,0.97,14.14c-1.25,3.51-2.8,6.91-4.26,10.34
			c-0.14,0.34-0.57,0.63-0.93,0.76c-0.13,0.05-0.51-0.41-0.68-0.69c-1.8-3.09-3.57-6.19-5.36-9.28c-1.59-2.75-3.19-5.49-4.81-8.23
			c-0.89-1.51-1.8-3-2.75-4.47c-2.01-3.1-3.6-6.38-4.23-10.04c-0.95-5.53,0.6-10.41,4.23-14.6c3.61-4.18,8.26-6.2,14.61-6.24
			c6.49,0.23,11.92,3.6,15.34,10C389.34,605.77,390.07,608.55,389.97,611.45z"/>
	</g>
	<g>
		<path class="st1" d="M168.47,813.67c-1.15-1.91-2.51-3.44-4.06-4.55c-1.62-1.17-3.41-1.76-5.31-1.76h-22.37
			c-1.91,0-3.7,0.59-5.31,1.76c-1.56,1.12-2.91,2.66-4.02,4.56c-1.09,1.85-1.99,4.06-2.66,6.56c-0.67,2.5-1.01,5.16-1.01,7.92
			l0.25,70.84h13.36v-23.89h21.77c1.91,0,3.7-0.59,5.31-1.76c1.54-1.11,2.9-2.62,4.05-4.47c1.13-1.83,2.03-4.03,2.68-6.53
			c0.64-2.49,0.96-5.15,0.96-7.9v-26.29c0-2.85-0.32-5.53-0.96-7.98C170.49,817.73,169.6,815.54,168.47,813.67z M158.49,825.36
			v31.77c0,1.11-0.2,2.01-0.6,2.67c-0.42,0.7-0.79,0.7-0.97,0.7h-19.59v-35.14c0-1.11,0.2-2.01,0.6-2.67c0.42-0.7,0.77-0.7,0.89-0.7
			h18.11c0.18,0,0.55,0,0.97,0.7C158.29,823.35,158.49,824.25,158.49,825.36z"/>
		<rect x="190.18" y="808.71" class="st1" width="13.61" height="91.64"/>
		<path class="st1" d="M227.18,809.09c-1.7,1.12-3.18,2.65-4.4,4.55c-1.2,1.86-2.18,4.04-2.92,6.5c-0.74,2.46-1.11,5.16-1.11,8.01
			v50.19c0,2.77,0.37,5.42,1.11,7.88c0.74,2.45,1.72,4.64,2.92,6.51c1.23,1.91,2.72,3.44,4.41,4.54c1.75,1.15,3.67,1.73,5.73,1.73
			h37.84v-14.62h-35.46c-0.34,0-0.74-0.09-1.18-0.79c-0.44-0.7-0.66-1.52-0.66-2.45v-55.79c0-1.09,0.22-1.97,0.65-2.63
			c0.35-0.52,0.7-0.75,1.19-0.75h35.46v-14.62H232.9C230.85,807.36,228.92,807.95,227.18,809.09z"/>
		<polygon class="st1" points="316.59,807.36 297.93,843.97 297.93,807.36 283.78,807.36 283.78,899.01 297.93,899.01 
			297.93,862.05 316.59,899.01 333.23,899.01 309.96,852.99 333.24,807.36 		"/>
		<polygon class="st1" points="344.92,821.99 366.51,821.99 366.51,899.14 380.7,899.14 380.7,821.99 402.3,821.99 402.3,807.23 
			344.92,807.23 		"/>
		<path class="st1" d="M464.33,813.66c-1.17-1.9-2.58-3.43-4.17-4.55c-1.66-1.16-3.48-1.75-5.43-1.75h-25.08
			c-1.89,0-3.7,0.59-5.38,1.74c-1.63,1.12-3.04,2.66-4.19,4.56c-1.12,1.86-2.04,4.04-2.74,6.5c-0.69,2.46-1.04,5.15-1.04,7.99v50.19
			c0,2.76,0.35,5.41,1.04,7.86c0.69,2.45,1.61,4.64,2.73,6.5c1.16,1.92,2.57,3.45,4.19,4.56c1.68,1.16,3.49,1.74,5.38,1.74h25.08
			c1.95,0,3.78-0.59,5.43-1.75c1.58-1.11,2.99-2.64,4.17-4.54c1.16-1.87,2.08-4.07,2.74-6.52c0.66-2.45,1-5.09,1-7.85v-50.19
			c0-2.84-0.33-5.52-1-7.98C466.41,817.72,465.49,815.52,464.33,813.66z M454.14,825.36v55.79c0,0.94-0.21,1.78-0.63,2.48
			c-0.45,0.76-0.79,0.76-0.94,0.76h-20.69c-0.15,0-0.49,0-0.94-0.76c-0.41-0.7-0.62-1.53-0.62-2.47v-55.79c0-1.11,0.21-2,0.61-2.65
			c0.44-0.72,0.8-0.72,0.95-0.72h20.69c0.15,0,0.5,0,0.95,0.71C453.93,823.36,454.14,824.25,454.14,825.36z"/>
		<path class="st1" d="M527.35,813.65c-1.2-1.9-2.63-3.43-4.25-4.55c-1.68-1.16-3.53-1.74-5.51-1.74h-23.44
			c-1.98,0-3.83,0.59-5.51,1.74c-1.63,1.12-3.04,2.65-4.21,4.56c-1.15,1.86-2.08,4.07-2.79,6.57c-0.7,2.5-1.06,5.17-1.06,7.93
			l0.26,70.84h13.89v-23.89h22.86c1.98,0,3.83-0.59,5.51-1.74c1.61-1.11,3.04-2.61,4.24-4.47c1.19-1.83,2.13-4.03,2.81-6.54
			c0.67-2.49,1.01-5.15,1.01-7.92v-26.29c0-2.85-0.34-5.54-1.01-7.99C529.47,817.72,528.53,815.52,527.35,813.65z M517.01,825.36
			v31.77c0,1.1-0.21,1.99-0.62,2.65c-0.46,0.72-0.88,0.72-1.08,0.72h-20.58v-35.14c0-1.1,0.21-1.99,0.62-2.65
			c0.41-0.65,0.76-0.72,0.99-0.72h18.97c0.2,0,0.62,0,1.08,0.72C516.8,823.37,517.01,824.26,517.01,825.36z"/>
		<rect x="543.99" y="807.36" class="st1" width="16.7" height="91.64"/>
		<path class="st1" d="M611.3,807.62l-0.09-0.39h-15.16l-21,91.91h13.96l4.62-20.55h19.84l4.71,20.55h13.96L611.3,807.62z
			 M610.04,863.83h-12.99l6.46-28.52L610.04,863.83z"/>
	</g>
</g>
</svg>
